<svg width="72" height="96" viewBox="0 0 72 96" fill="none" xmlns="http://www.w3.org/2000/svg">
<path d="M70.3125 28.3125L43.6875 1.6875C42.5625 0.5625 41.1875 0 39.5625 0H12C8.625 0.125 5.8125 1.3125 3.5625 3.5625C1.3125 5.8125 0.125 8.625 0 12V84C0.125 87.375 1.3125 90.1875 3.5625 92.4375C5.8125 94.6875 8.625 95.875 12 96H60C63.375 95.875 66.1875 94.6875 68.4375 92.4375C70.6875 90.1875 71.875 87.375 72 84V32.4375C72 30.8125 71.4375 29.4375 70.3125 28.3125ZM42 4.3125L67.6875 30H46.5C43.75 29.75 42.25 28.25 42 25.5V4.3125ZM69 84C68.875 86.5 68 88.625 66.375 90.375C64.625 92 62.5 92.875 60 93H12C9.5 92.875 7.375 92 5.625 90.375C4 88.625 3.125 86.5 3 84V12C3.125 9.5 4 7.375 5.625 5.625C7.375 4 9.5 3.125 12 3H39V25.5C39 27.625 39.75 29.375 41.25 30.75C42.625 32.25 44.375 33 46.5 33H69V84ZM37.3125 43.5C37.3125 42.625 36.8125 42.125 35.8125 42C34.9375 42.125 34.4375 42.625 34.3125 43.5V78.9375L16.875 61.5C16.25 60.875 15.5625 60.875 14.8125 61.5C14.1875 62.125 14.1875 62.8125 14.8125 63.5625L34.875 83.625C35.5 84.125 36.1875 84.125 36.9375 83.625L57.1875 63.375C57.4375 63 57.5625 62.625 57.5625 62.25C57.5625 61.875 57.4375 61.5 57.1875 61.125C56.4375 60.625 55.75 60.625 55.125 61.125L37.3125 78.9375V43.5Z" fill="#FF8701"/>
</svg>
