<svg width="84" height="96" viewBox="0 0 84 96" fill="none" xmlns="http://www.w3.org/2000/svg">
<path d="M18.1875 25.5C18.1875 25.375 18.25 25.375 18.375 25.5C19.125 25.5 19.625 25.125 19.875 24.375C20.625 20.375 22.3125 16.875 24.9375 13.875C27.5625 10.875 30.75 8.6875 34.5 7.3125V24C34.625 24.875 35.125 25.375 36 25.5C36.875 25.375 37.375 24.875 37.5 24V4.5C37.625 3.625 38.125 3.125 39 3H45C45.875 3.125 46.375 3.625 46.5 4.5V24C46.625 24.875 47.125 25.375 48 25.5C48.875 25.375 49.375 24.875 49.5 24V7.3125C53.25 8.6875 56.4375 10.875 59.0625 13.875C61.6875 16.875 63.375 20.375 64.125 24.375C64.25 25.125 64.75 25.5 65.625 25.5C65.75 25.5 65.8125 25.5 65.8125 25.5C66.6875 25.25 67.125 24.6875 67.125 23.8125C66.125 19.0625 64.0625 14.9375 60.9375 11.4375C57.8125 8.0625 54 5.625 49.5 4.125C49.125 1.625 47.625 0.25 45 0H39C36.375 0.25 34.875 1.625 34.5 4.125C30 5.625 26.1875 8.0625 23.0625 11.4375C19.9375 14.9375 17.875 19.0625 16.875 23.8125C16.875 24.6875 17.3125 25.25 18.1875 25.5ZM16.5 33H67.5C68.375 32.875 68.875 32.375 69 31.5C68.875 30.625 68.375 30.125 67.5 30H16.5C15.625 30.125 15.125 30.625 15 31.5C15.125 32.375 15.625 32.875 16.5 33ZM63.9375 39C63.1875 39 62.6875 39.4375 62.4375 40.3125C61.4375 45.1875 59.0625 49.125 55.3125 52.125C51.5625 55.25 47.125 56.875 42 57C36.875 56.875 32.4375 55.25 28.6875 52.125C24.9375 49.125 22.5625 45.1875 21.5625 40.3125C21.3125 39.4375 20.75 39 19.875 39C18.875 39.125 18.375 39.75 18.375 40.875C19.75 46.375 22.5625 50.875 26.8125 54.375C31.0625 58 36.125 59.875 42 60C47.875 59.875 52.9375 58.0625 57.1875 54.5625C61.4375 50.9375 64.1875 46.375 65.4375 40.875C65.4375 39.75 64.9375 39.125 63.9375 39ZM59.0625 66H24.9375C17.9375 66.125 12.0625 68.5625 7.3125 73.3125C2.5625 78.0625 0.125 83.9375 0 90.9375C0.25 94.0625 1.9375 95.75 5.0625 96H78.9375C82.0625 95.75 83.75 94.0625 84 90.9375C83.875 83.9375 81.4375 78.0625 76.6875 73.3125C71.9375 68.5625 66.0625 66.125 59.0625 66ZM78.9375 93H5.0625C3.8125 92.875 3.125 92.1875 3 90.9375C3.125 84.8125 5.25 79.625 9.375 75.375C13.625 71.25 18.8125 69.125 24.9375 69H59.0625C65.1875 69.125 70.375 71.25 74.625 75.375C78.75 79.625 80.875 84.8125 81 90.9375C80.875 92.1875 80.1875 92.875 78.9375 93Z" fill="#FF8701"/>
</svg>
