<svg width="96" height="96" viewBox="0 0 96 96" fill="none" xmlns="http://www.w3.org/2000/svg">
<path d="M54.1875 24H41.8125C38.4375 24.125 35.6875 25.3125 33.5625 27.5625C31.3125 29.6875 30.125 32.4375 30 35.8125V37.875C30.125 38.75 30.625 39.25 31.5 39.375C32.375 39.25 32.875 38.75 33 37.875V35.8125C33.125 33.3125 34 31.25 35.625 29.625C37.25 28 39.3125 27.125 41.8125 27H54.1875C56.6875 27.125 58.75 28 60.375 29.625C62 31.25 62.875 33.3125 63 35.8125C62.875 39.3125 61.375 41.9375 58.5 43.6875L46.125 49.875C44.25 50.875 43.25 52.5 43.125 54.75V58.5C43.25 59.375 43.75 59.875 44.625 60C45.625 59.875 46.125 59.375 46.125 58.5V54.75C46.25 53.75 46.6875 53 47.4375 52.5L59.8125 46.3125C63.8125 43.9375 65.875 40.4375 66 35.8125C65.875 32.4375 64.6875 29.6875 62.4375 27.5625C60.3125 25.3125 57.5625 24.125 54.1875 24ZM45 66C43.125 66.125 42.125 67.125 42 69C42.125 70.875 43.125 71.875 45 72C46.875 71.875 47.875 70.875 48 69C47.875 67.125 46.875 66.125 45 66ZM48 0C39 0.125 30.9375 2.3125 23.8125 6.5625C16.5625 10.8125 10.8125 16.5625 6.5625 23.8125C2.3125 30.9375 0.125 39 0 48C0.125 57 2.3125 65.0625 6.5625 72.1875C10.8125 79.4375 16.5625 85.1875 23.8125 89.4375C30.9375 93.6875 39 95.875 48 96C57 95.875 65.0625 93.6875 72.1875 89.4375C79.4375 85.1875 85.1875 79.4375 89.4375 72.1875C93.6875 65.0625 95.875 57 96 48C95.875 39 93.6875 30.9375 89.4375 23.8125C85.1875 16.5625 79.4375 10.8125 72.1875 6.5625C65.0625 2.3125 57 0.125 48 0ZM48 93C39.625 92.875 32.0625 90.8125 25.3125 86.8125C18.5625 82.8125 13.1875 77.4375 9.1875 70.6875C5.1875 63.9375 3.125 56.375 3 48C3.125 39.625 5.1875 32.0625 9.1875 25.3125C13.1875 18.5625 18.5625 13.1875 25.3125 9.1875C32.0625 5.1875 39.625 3.125 48 3C56.375 3.125 63.9375 5.1875 70.6875 9.1875C77.4375 13.1875 82.8125 18.5625 86.8125 25.3125C90.8125 32.0625 92.875 39.625 93 48C92.875 56.375 90.8125 63.9375 86.8125 70.6875C82.8125 77.4375 77.4375 82.8125 70.6875 86.8125C63.9375 90.8125 56.375 92.875 48 93Z" fill="#FF8701"/>
</svg>
